<svg xmlns="http://www.w3.org/2000/svg" version="1.1" xmlns:xlink="http://www.w3.org/1999/xlink" xmlns:svgjs="http://svgjs.dev/svgjs" width="1500" height="1500" viewBox="0 0 1500 1500"><rect width="1500" height="1500" fill="#401313"></rect><g transform="matrix(0.6666666666666666,0,0,0.6666666666666666,249.01078274190445,315.2688172043011)"><svg viewBox="0 0 286 248" data-background-color="#401313" preserveAspectRatio="xMidYMid meet" height="1300" width="1500" xmlns="http://www.w3.org/2000/svg" xmlns:xlink="http://www.w3.org/1999/xlink"><g id="tight-bounds" transform="matrix(1,0,0,1,0.28291613581532715,0.4000000000000057)"><svg viewBox="0 0 285.43416772836935 247.2" height="247.2" width="285.43416772836935"><g><svg viewBox="0 0 395.52 342.53973439172944" height="247.2" width="285.43416772836935"><g><svg viewBox="0 0 395.52 184.14544140765892" height="184.14544140765892" width="395.52"><g id="textblocktransform"><svg viewBox="0 0 395.52 184.14544140765892" height="184.14544140765892" width="395.52" id="textblock"><g><svg viewBox="0 0 395.52 110.89639396346307" height="110.89639396346307" width="395.52"><g transform="matrix(1,0,0,1,0,0)"><svg width="395.52" viewBox="3 -34.55 125.88999999999999 35.3" height="110.89639396346307" data-palette-color="#ff7700"><path d="M25.35 0L18.5 0 12.4-13.95 11.8-13.95 9.35-13.95 9.35 0 3 0 3-34.55 11.15-34.55Q23.65-34.55 23.65-24.4L23.65-24.4Q23.65-21.25 22.25-18.82 20.85-16.4 18.05-15.15L18.05-15.15 25.35 0ZM11.45-18.55Q14.4-18.55 15.73-19.95 17.05-21.35 17.05-24.4L17.05-24.4Q17.05-27.25 15.68-28.58 14.3-29.9 11.15-29.9L11.15-29.9 9.35-29.9 9.35-18.55 11.45-18.55ZM42.6-18.3Q45.95-17.55 47.87-15.63 49.8-13.7 49.8-9.9L49.8-9.9Q49.8-4.9 46.42-2.45 43.05 0 37.25 0L37.25 0 28.55 0 28.55-34.55 36.1-34.55Q42.05-34.55 45.3-32.3 48.55-30.05 48.55-25.75L48.55-25.75Q48.55-22.85 46.92-20.95 45.3-19.05 42.6-18.3L42.6-18.3ZM36.75-29.85L34.9-29.85 34.9-20.3 37.05-20.3Q42.1-20.3 42.1-25.2L42.1-25.2Q42.1-27.65 40.82-28.75 39.55-29.85 36.75-29.85L36.75-29.85ZM37.3-4.8Q40.2-4.8 41.7-6.03 43.2-7.25 43.2-10.15L43.2-10.15Q43.2-13.05 41.8-14.43 40.4-15.8 37.45-15.8L37.45-15.8 34.9-15.8 34.9-4.8 37.3-4.8ZM63.3-27.15Q65.45-27.15 67.2-26.43 68.95-25.7 70.55-24.15L70.55-24.15 67.9-20.65Q66.8-21.55 65.82-21.98 64.85-22.4 63.7-22.4L63.7-22.4Q61.45-22.4 60.3-20.28 59.15-18.15 59.15-13.1L59.15-13.1Q59.15-8.2 60.32-6.2 61.5-4.2 63.7-4.2L63.7-4.2Q64.8-4.2 65.7-4.6 66.6-5 67.8-5.85L67.8-5.85 70.55-2.3Q67.35 0.75 63.4 0.75L63.4 0.75Q58.3 0.75 55.47-2.73 52.65-6.2 52.65-13L52.65-13Q52.65-17.4 53.95-20.6 55.25-23.8 57.67-25.48 60.1-27.15 63.3-27.15L63.3-27.15ZM90.49-6.4Q90.49-5.1 90.84-4.48 91.19-3.85 91.99-3.45L91.99-3.45 90.74 0.65Q88.69 0.4 87.47-0.45 86.24-1.3 85.64-3.05L85.64-3.05Q83.34 0.75 79.19 0.75L79.19 0.75Q75.89 0.75 73.94-1.48 71.99-3.7 71.99-7.4L71.99-7.4Q71.99-11.7 74.67-13.95 77.34-16.2 82.44-16.2L82.44-16.2 84.49-16.2 84.49-18.05Q84.49-20.55 83.62-21.58 82.74-22.6 80.79-22.6L80.79-22.6Q78.44-22.6 74.94-21.3L74.94-21.3 73.54-25.3Q75.54-26.2 77.69-26.68 79.84-27.15 81.79-27.15L81.79-27.15Q90.49-27.15 90.49-18.35L90.49-18.35 90.49-6.4ZM80.84-3.7Q83.24-3.7 84.49-7L84.49-7 84.49-12.55 83.04-12.55Q80.49-12.55 79.32-11.4 78.14-10.25 78.14-7.85L78.14-7.85Q78.14-5.8 78.84-4.75 79.54-3.7 80.84-3.7L80.84-3.7ZM107.94-27.1Q109.09-27.1 109.99-26.75L109.99-26.75 108.99-20.85Q107.99-21.1 107.14-21.1L107.14-21.1Q105.24-21.1 104.14-19.45 103.04-17.8 102.44-14.55L102.44-14.55 102.44 0 96.29 0 96.29-26.45 101.64-26.45 102.09-21.85Q103.94-27.1 107.94-27.1L107.94-27.1ZM120.19-27.15Q124.89-27.15 128.14-24.05L128.14-24.05 125.79-20.7Q124.39-21.7 123.14-22.2 121.89-22.7 120.59-22.7L120.59-22.7Q119.14-22.7 118.31-21.93 117.49-21.15 117.49-19.8L117.49-19.8Q117.49-18.45 118.41-17.63 119.34-16.8 122.14-15.7L122.14-15.7Q125.59-14.35 127.24-12.5 128.89-10.65 128.89-7.55L128.89-7.55Q128.89-3.7 126.19-1.48 123.49 0.75 119.34 0.75L119.34 0.75Q116.64 0.75 114.36-0.23 112.09-1.2 110.39-2.95L110.39-2.95 113.39-6.25Q116.19-3.8 119.09-3.8L119.09-3.8Q120.74-3.8 121.69-4.67 122.64-5.55 122.64-7.1L122.64-7.1Q122.64-8.25 122.24-8.97 121.84-9.7 120.84-10.33 119.84-10.95 117.84-11.7L117.84-11.7Q114.39-13.05 112.91-14.85 111.44-16.65 111.44-19.45L111.44-19.45Q111.44-22.8 113.81-24.98 116.19-27.15 120.19-27.15L120.19-27.15Z" opacity="1" transform="matrix(1,0,0,1,0,0)" fill="#ff7700" class="wordmark-text-0" data-fill-palette-color="primary" id="text-0"></path></svg></g></svg></g><g transform="matrix(1,0,0,1,0,137.07637106478157)"><svg viewBox="0 0 395.52 47.069070342877346" height="47.069070342877346" width="395.52"><g transform="matrix(1,0,0,1,0,0)"><svg width="395.52" viewBox="-0.25 -39.65 424.3 50.5" height="47.069070342877346" data-palette-color="#ffbc50"><path d="M17.85-34.55L24.35-34.55 15.25-13.15 15.25 0 8.85 0 8.85-13.1-0.25-34.55 6.5-34.55 12.15-18.3 17.85-34.55ZM36.35-27.15Q41.35-27.15 44.12-23.65 46.9-20.15 46.9-13.25L46.9-13.25Q46.9-6.65 44.1-2.95 41.3 0.75 36.35 0.75L36.35 0.75Q31.4 0.75 28.6-2.88 25.8-6.5 25.8-13.25L25.8-13.25Q25.8-19.95 28.6-23.55 31.4-27.15 36.35-27.15L36.35-27.15ZM36.35-22.5Q34.2-22.5 33.2-20.38 32.2-18.25 32.2-13.25L32.2-13.25Q32.2-8.2 33.2-6.08 34.2-3.95 36.35-3.95L36.35-3.95Q38.5-3.95 39.5-6.08 40.5-8.2 40.5-13.25L40.5-13.25Q40.5-18.3 39.5-20.4 38.5-22.5 36.35-22.5L36.35-22.5ZM69.59-26.45L69.59 0 64.25 0 63.95-3.35Q62.7-1.3 61.14-0.28 59.59 0.75 57.55 0.75L57.55 0.75Q54.64 0.75 52.97-1.3 51.3-3.35 51.3-6.65L51.3-6.65 51.3-26.45 57.45-26.45 57.45-7Q57.45-3.9 59.55-3.9L59.55-3.9Q60.74-3.9 61.7-4.83 62.64-5.75 63.45-7.45L63.45-7.45 63.45-26.45 69.59-26.45ZM86.94-27.1Q88.09-27.1 88.99-26.75L88.99-26.75 87.99-20.85Q86.99-21.1 86.14-21.1L86.14-21.1Q84.24-21.1 83.14-19.45 82.04-17.8 81.44-14.55L81.44-14.55 81.44 0 75.29 0 75.29-26.45 80.64-26.45 81.09-21.85Q82.94-27.1 86.94-27.1L86.94-27.1ZM113.34-27.1Q114.49-27.1 115.39-26.75L115.39-26.75 114.39-20.85Q113.39-21.1 112.54-21.1L112.54-21.1Q110.64-21.1 109.54-19.45 108.44-17.8 107.84-14.55L107.84-14.55 107.84 0 101.69 0 101.69-26.45 107.04-26.45 107.49-21.85Q109.34-27.1 113.34-27.1L113.34-27.1ZM118.23-26.45L124.39-26.45 124.39 0 118.23 0 118.23-26.45ZM121.29-39.65Q122.94-39.65 123.96-38.6 124.99-37.55 124.99-35.9L124.99-35.9Q124.99-34.3 123.96-33.25 122.94-32.2 121.29-32.2L121.29-32.2Q119.64-32.2 118.61-33.25 117.59-34.3 117.59-35.9L117.59-35.9Q117.59-37.55 118.61-38.6 119.64-39.65 121.29-39.65L121.29-39.65ZM143.03-37.7L149.18-37.05 149.18 0 143.73 0 143.43-3.05Q141.08 0.75 137.38 0.75L137.38 0.75Q133.28 0.75 131.11-2.93 128.93-6.6 128.93-13.2L128.93-13.2Q128.93-17.4 130.06-20.58 131.18-23.75 133.18-25.45 135.18-27.15 137.78-27.15L137.78-27.15Q140.98-27.15 143.03-24.5L143.03-24.5 143.03-37.7ZM139.13-3.9Q140.28-3.9 141.21-4.7 142.13-5.5 143.03-7L143.03-7 143.03-19.85Q141.43-22.55 139.38-22.55L139.38-22.55Q135.33-22.55 135.33-13.25L135.33-13.25Q135.33-8.2 136.33-6.05 137.33-3.9 139.13-3.9L139.13-3.9ZM173.73-13.85Q173.73-13.4 173.58-11.3L173.58-11.3 159.93-11.3Q160.13-7.2 161.36-5.58 162.58-3.95 164.83-3.95L164.83-3.95Q166.38-3.95 167.63-4.48 168.88-5 170.33-6.15L170.33-6.15 172.88-2.65Q169.38 0.75 164.48 0.75L164.48 0.75Q159.28 0.75 156.51-2.85 153.73-6.45 153.73-13L153.73-13Q153.73-19.55 156.38-23.35 159.03-27.15 163.88-27.15L163.88-27.15Q168.53-27.15 171.13-23.78 173.73-20.4 173.73-13.85L173.73-13.85ZM167.73-15.3L167.73-15.65Q167.73-19.4 166.83-21.13 165.93-22.85 163.93-22.85L163.93-22.85Q162.08-22.85 161.11-21.18 160.13-19.5 159.93-15.3L159.93-15.3 167.73-15.3ZM180.43-7.05Q182.03-7.05 183.05-5.98 184.08-4.9 184.08-3.25L184.08-3.25Q184.08-2.55 183.85-1.78 183.63-1 183.28-0.08 182.93 0.85 182.83 1.2L182.83 1.2 180.18 8.55 176.73 8.55 178.53 0.1Q176.73-1.2 176.73-3.2L176.73-3.2Q176.73-4.85 177.78-5.95 178.83-7.05 180.43-7.05L180.43-7.05ZM216.97-26.45L209.97 0.1Q208.67 4.9 205.77 7.65 202.87 10.4 198.02 10.85L198.02 10.85 197.32 6.5Q200.47 5.85 202.05 4.42 203.62 3 204.52 0L204.52 0 202.22 0 195.52-26.45 201.77-26.45 206.17-4.1 210.87-26.45 216.97-26.45ZM229.27-27.15Q234.27-27.15 237.05-23.65 239.82-20.15 239.82-13.25L239.82-13.25Q239.82-6.65 237.02-2.95 234.22 0.75 229.27 0.75L229.27 0.75Q224.32 0.75 221.52-2.88 218.72-6.5 218.72-13.25L218.72-13.25Q218.72-19.95 221.52-23.55 224.32-27.15 229.27-27.15L229.27-27.15ZM229.27-22.5Q227.12-22.5 226.12-20.38 225.12-18.25 225.12-13.25L225.12-13.25Q225.12-8.2 226.12-6.08 227.12-3.95 229.27-3.95L229.27-3.95Q231.42-3.95 232.42-6.08 233.42-8.2 233.42-13.25L233.42-13.25Q233.42-18.3 232.42-20.4 231.42-22.5 229.27-22.5L229.27-22.5ZM262.52-26.45L262.52 0 257.17 0 256.87-3.35Q255.62-1.3 254.07-0.28 252.52 0.75 250.47 0.75L250.47 0.75Q247.57 0.75 245.89-1.3 244.22-3.35 244.22-6.65L244.22-6.65 244.22-26.45 250.37-26.45 250.37-7Q250.37-3.9 252.47-3.9L252.47-3.9Q253.67-3.9 254.62-4.83 255.57-5.75 256.37-7.45L256.37-7.45 256.37-26.45 262.52-26.45ZM279.87-27.1Q281.02-27.1 281.92-26.75L281.92-26.75 280.92-20.85Q279.92-21.1 279.07-21.1L279.07-21.1Q277.17-21.1 276.07-19.45 274.97-17.8 274.37-14.55L274.37-14.55 274.37 0 268.22 0 268.22-26.45 273.57-26.45 274.02-21.85Q275.87-27.1 279.87-27.1L279.87-27.1ZM304.11-27.15Q306.26-27.15 308.01-26.43 309.76-25.7 311.36-24.15L311.36-24.15 308.71-20.65Q307.61-21.55 306.64-21.98 305.66-22.4 304.51-22.4L304.51-22.4Q302.26-22.4 301.11-20.28 299.96-18.15 299.96-13.1L299.96-13.1Q299.96-8.2 301.14-6.2 302.31-4.2 304.51-4.2L304.51-4.2Q305.61-4.2 306.51-4.6 307.41-5 308.61-5.85L308.61-5.85 311.36-2.3Q308.16 0.75 304.21 0.75L304.21 0.75Q299.11 0.75 296.29-2.73 293.46-6.2 293.46-13L293.46-13Q293.46-17.4 294.76-20.6 296.06-23.8 298.49-25.48 300.91-27.15 304.11-27.15L304.11-27.15ZM326.76-27.15Q329.61-27.15 331.26-25.1 332.91-23.05 332.91-19.6L332.91-19.6 332.91 0 326.76 0 326.76-18.9Q326.76-20.8 326.23-21.63 325.71-22.45 324.71-22.45L324.71-22.45Q322.61-22.45 320.56-18.5L320.56-18.5 320.56 0 314.41 0 314.41-37 320.56-37.65 320.56-23.3Q321.81-25.25 323.28-26.2 324.76-27.15 326.76-27.15L326.76-27.15ZM347.86-27.15Q352.86-27.15 355.63-23.65 358.41-20.15 358.41-13.25L358.41-13.25Q358.41-6.65 355.61-2.95 352.81 0.75 347.86 0.75L347.86 0.75Q342.91 0.75 340.11-2.88 337.31-6.5 337.31-13.25L337.31-13.25Q337.31-19.95 340.11-23.55 342.91-27.15 347.86-27.15L347.86-27.15ZM347.86-22.5Q345.71-22.5 344.71-20.38 343.71-18.25 343.71-13.25L343.71-13.25Q343.71-8.2 344.71-6.08 345.71-3.95 347.86-3.95L347.86-3.95Q350.01-3.95 351.01-6.08 352.01-8.2 352.01-13.25L352.01-13.25Q352.01-18.3 351.01-20.4 350.01-22.5 347.86-22.5L347.86-22.5ZM362.95-26.45L369.1-26.45 369.1 0 362.95 0 362.95-26.45ZM366-39.65Q367.65-39.65 368.68-38.6 369.7-37.55 369.7-35.9L369.7-35.9Q369.7-34.3 368.68-33.25 367.65-32.2 366-32.2L366-32.2Q364.35-32.2 363.33-33.25 362.3-34.3 362.3-35.9L362.3-35.9Q362.3-37.55 363.33-38.6 364.35-39.65 366-39.65L366-39.65ZM384.3-27.15Q386.45-27.15 388.2-26.43 389.95-25.7 391.55-24.15L391.55-24.15 388.9-20.65Q387.8-21.55 386.83-21.98 385.85-22.4 384.7-22.4L384.7-22.4Q382.45-22.4 381.3-20.28 380.15-18.15 380.15-13.1L380.15-13.1Q380.15-8.2 381.33-6.2 382.5-4.2 384.7-4.2L384.7-4.2Q385.8-4.2 386.7-4.6 387.6-5 388.8-5.85L388.8-5.85 391.55-2.3Q388.35 0.75 384.4 0.75L384.4 0.75Q379.3 0.75 376.48-2.73 373.65-6.2 373.65-13L373.65-13Q373.65-17.4 374.95-20.6 376.25-23.8 378.68-25.48 381.1-27.15 384.3-27.15L384.3-27.15ZM413.45-13.85Q413.45-13.4 413.3-11.3L413.3-11.3 399.65-11.3Q399.85-7.2 401.07-5.58 402.3-3.95 404.55-3.95L404.55-3.95Q406.1-3.95 407.35-4.48 408.6-5 410.05-6.15L410.05-6.15 412.6-2.65Q409.1 0.75 404.2 0.75L404.2 0.75Q399 0.75 396.22-2.85 393.45-6.45 393.45-13L393.45-13Q393.45-19.55 396.1-23.35 398.75-27.15 403.6-27.15L403.6-27.15Q408.25-27.15 410.85-23.78 413.45-20.4 413.45-13.85L413.45-13.85ZM407.45-15.3L407.45-15.65Q407.45-19.4 406.55-21.13 405.65-22.85 403.65-22.85L403.65-22.85Q401.8-22.85 400.82-21.18 399.85-19.5 399.65-15.3L399.65-15.3 407.45-15.3ZM420.25-7.05Q421.95-7.05 423-5.9 424.05-4.75 424.05-3.15L424.05-3.15Q424.05-1.55 423-0.4 421.95 0.75 420.25 0.75L420.25 0.75Q418.6 0.75 417.52-0.4 416.45-1.55 416.45-3.15L416.45-3.15Q416.45-4.75 417.52-5.9 418.6-7.05 420.25-7.05L420.25-7.05Z" opacity="1" transform="matrix(1,0,0,1,0,0)" fill="#ffbc50" class="slogan-text-1" data-fill-palette-color="secondary" id="text-1"></path></svg></g></svg></g></svg></g></svg></g><g transform="matrix(1,0,0,1,42.54608640000001,210.32541850897744)"><svg viewBox="0 0 310.42782719999997 132.214315882752" height="132.214315882752" width="310.42782719999997"><g><svg xmlns="http://www.w3.org/2000/svg" xmlns:xlink="http://www.w3.org/1999/xlink" version="1.1" x="0" y="0" viewBox="0 0 100 42.591" enable-background="new 0 0 100 42.591" xml:space="preserve" id="icon-0" width="310.42782719999997" height="132.214315882752" class="icon-icon-0" data-fill-palette-color="accent"><path d="M19.525 24.44C14.525 24.44 10.456 28.515 10.456 33.529 10.456 38.515 14.525 42.591 19.525 42.591 24.538 42.591 28.613 38.515 28.613 33.529 28.613 28.515 24.538 24.44 19.525 24.44M19.525 38.412C16.849 38.412 14.649 36.211 14.649 33.529 14.649 30.834 16.85 28.633 19.525 28.633 22.22 28.633 24.414 30.834 24.414 33.529 24.414 36.21 22.22 38.412 19.525 38.412" fill="#ffb167" data-fill-palette-color="accent"></path><path d="M80.632 24.44C75.625 24.44 71.556 28.515 71.556 33.529 71.556 38.515 75.625 42.591 80.632 42.591 85.638 42.591 89.7 38.515 89.7 33.529 89.7 28.515 85.638 24.44 80.632 24.44M80.632 38.412C77.937 38.412 75.742 36.211 75.742 33.529 75.742 30.834 77.936 28.633 80.632 28.633S85.521 30.834 85.521 33.529C85.521 36.21 83.327 38.412 80.632 38.412" fill="#ffb167" data-fill-palette-color="accent"></path><path d="M98.249 26.732C98.249 17.917 92.754 16.862 92.754 16.862 84.675 15.729 70.755 15.143 70.755 15.143 69.479 12.93 63.581 0 60.149 0H30.006C25.638 0 18.483 12.604 16.914 15.456 16.914 15.456 11.432 16.394 8.848 16.993 7.416 17.318 3.438 17.396 3.438 28.503H0V33.529H8.366C8.366 27.357 13.373 22.357 19.525 22.357 25.703 22.357 30.697 27.357 30.697 33.529H69.46A11.16 11.16 0 0 1 80.632 22.357C86.797 22.357 91.797 27.357 91.797 33.529H100V26.732zM44.746 14.284H27.344C29.694 6.953 34.056 1.719 35.899 1.719H44.747zM47.988 14.284V1.719H59.277C61.601 1.719 66.699 12.357 68.131 15.078z" fill="#ffb167" data-fill-palette-color="accent"></path></svg></g></svg></g><g></g></svg></g><defs></defs></svg><rect width="285.43416772836935" height="247.2" fill="none" stroke="none" visibility="hidden"></rect></g></svg></g></svg>